<svg width="100" height="32" viewBox="0 0 100 32" fill="none" xmlns="http://www.w3.org/2000/svg">
<g filter="url(#filter0_d_1_2)">
<path d="M11.7131 23.3196C10.0795 23.3196 8.73722 22.9609 7.68608 22.2436C6.63494 21.5263 5.89986 20.5355 5.48082 19.2713C5.06889 18 5.00142 16.5369 5.27841 14.8821C5.5483 13.2202 6.10582 11.7536 6.95099 10.4822C7.80327 9.20383 8.87571 8.20952 10.1683 7.49929C11.4609 6.78196 12.9063 6.4233 14.5043 6.4233C15.8324 6.4233 16.9652 6.66832 17.9027 7.15838C18.8473 7.64134 19.5504 8.3267 20.0121 9.21449C20.4808 10.0952 20.6619 11.125 20.5554 12.304H16.8587C16.8445 11.5156 16.5994 10.8587 16.1236 10.3331C15.6477 9.80043 14.9517 9.53409 14.0355 9.53409C13.2401 9.53409 12.5085 9.74716 11.8409 10.1733C11.1733 10.5923 10.6087 11.196 10.147 11.9844C9.68537 12.7727 9.36577 13.7173 9.18821 14.8182C9.00355 15.9332 9.0071 16.892 9.19886 17.6946C9.39773 18.4901 9.75639 19.1044 10.2749 19.5376C10.8004 19.9638 11.4645 20.1768 12.267 20.1768C12.8352 20.1768 13.3643 20.0703 13.8544 19.8572C14.3445 19.6371 14.7741 19.321 15.1435 18.9091C15.5199 18.4972 15.8146 17.9964 16.0277 17.407H19.7138C19.4226 18.5646 18.9041 19.5909 18.1584 20.4858C17.4197 21.3736 16.5036 22.0696 15.4098 22.5739C14.3161 23.071 13.0838 23.3196 11.7131 23.3196ZM29.1127 23.3196C27.5005 23.3196 26.1582 22.9645 25.0858 22.2543C24.0204 21.544 23.2711 20.5462 22.8379 19.2607C22.4047 17.9751 22.3265 16.4837 22.6035 14.7862C22.8805 13.1101 23.4345 11.6435 24.2654 10.3864C25.1035 9.12926 26.1582 8.15625 27.4295 7.46733C28.7079 6.77131 30.139 6.4233 31.7228 6.4233C33.3351 6.4233 34.6738 6.78196 35.7392 7.49929C36.8045 8.20952 37.5538 9.20739 37.987 10.4929C38.4274 11.7784 38.5091 13.277 38.2321 14.9886C37.9622 16.6577 37.4047 18.1172 36.5595 19.3672C35.7214 20.6172 34.6667 21.5902 33.3954 22.2862C32.1241 22.9751 30.6966 23.3196 29.1127 23.3196ZM29.4324 20.2301C30.3272 20.2301 31.112 19.9886 31.7868 19.5057C32.4686 19.0156 33.0261 18.3587 33.4593 17.5348C33.8997 16.7038 34.2051 15.7805 34.3755 14.7649C34.5318 13.7848 34.5353 12.897 34.3862 12.1016C34.237 11.299 33.9174 10.6634 33.4274 10.1946C32.9444 9.71875 32.2733 9.48082 31.4139 9.48082C30.519 9.48082 29.7271 9.7294 29.0382 10.2266C28.3564 10.7166 27.7988 11.3771 27.3656 12.2081C26.9324 13.032 26.6341 13.9517 26.4707 14.9673C26.3074 15.9474 26.3002 16.8352 26.4494 17.6307C26.5985 18.4261 26.9181 19.0582 27.4082 19.527C27.8983 19.9957 28.573 20.2301 29.4324 20.2301ZM46.2354 23.2876C44.9499 23.2876 43.8526 22.9574 42.9435 22.2969C42.0344 21.6364 41.3881 20.6776 41.0046 19.4205C40.6282 18.1634 40.5856 16.6364 40.8768 14.8395C41.1822 13.0213 41.7397 11.4872 42.5494 10.2372C43.359 8.98011 44.3249 8.03196 45.4471 7.39276C46.5763 6.74645 47.7695 6.4233 49.0266 6.4233C49.9925 6.4233 50.756 6.58665 51.3171 6.91335C51.8853 7.23295 52.3114 7.62003 52.5955 8.07457C52.8796 8.52202 53.0891 8.9446 53.2241 9.34233H53.3839L54.7369 1.18182H58.604L54.9819 23H51.1893L51.6261 20.4219H51.3917C51.1218 20.8196 50.7631 21.2422 50.3157 21.6896C49.8683 22.13 49.3107 22.5064 48.6431 22.8189C47.9755 23.1314 47.1729 23.2876 46.2354 23.2876ZM47.7695 20.1236C48.5934 20.1236 49.332 19.9034 49.9854 19.4631C50.646 19.0156 51.1964 18.3942 51.6367 17.5987C52.0771 16.8033 52.386 15.8764 52.5636 14.8182C52.7411 13.7599 52.7411 12.8402 52.5636 12.0589C52.386 11.2777 52.0415 10.6705 51.5302 10.2372C51.0188 9.80398 50.3477 9.58736 49.5167 9.58736C48.6644 9.58736 47.9151 9.81108 47.2688 10.2585C46.6296 10.706 46.104 11.3239 45.6921 12.1122C45.2802 12.9006 44.989 13.8026 44.8185 14.8182C44.6481 15.8409 44.6374 16.7536 44.7866 17.5561C44.9428 18.3516 45.266 18.9801 45.756 19.4418C46.2532 19.8963 46.9244 20.1236 47.7695 20.1236ZM66.3118 23.3196C64.6712 23.3196 63.3146 22.9787 62.2422 22.2969C61.1697 21.608 60.4169 20.6349 59.9837 19.3778C59.5575 18.1136 59.4865 16.6257 59.7706 14.9141C60.0476 13.2308 60.6122 11.7536 61.4645 10.4822C62.3168 9.20383 63.3821 8.20952 64.6605 7.49929C65.946 6.78196 67.3665 6.4233 68.9219 6.4233C69.9304 6.4233 70.8572 6.58665 71.7024 6.91335C72.5476 7.23295 73.2614 7.73011 73.8438 8.40483C74.4261 9.07955 74.8274 9.93892 75.0476 10.983C75.2678 12.0199 75.2571 13.2557 75.0156 14.6903L74.8345 15.8729H61.4112L61.8267 13.2734H71.5426C71.6705 12.5348 71.6278 11.8778 71.4148 11.3026C71.2017 10.7202 70.8466 10.2621 70.3494 9.92827C69.8523 9.59446 69.2308 9.42756 68.4851 9.42756C67.7251 9.42756 67.0149 9.62287 66.3544 10.0135C65.701 10.397 65.1506 10.8942 64.7031 11.505C64.2557 12.1158 63.9716 12.7585 63.8509 13.4332L63.4141 15.9261C63.2578 16.9489 63.2933 17.7834 63.5206 18.4297C63.7479 19.076 64.1456 19.5518 64.7138 19.8572C65.282 20.1626 65.9993 20.3153 66.8658 20.3153C67.4339 20.3153 67.9595 20.2372 68.4425 20.081C68.9254 19.9247 69.3551 19.6903 69.7315 19.3778C70.1151 19.0582 70.4347 18.6676 70.6903 18.206L74.2166 18.6108C73.826 19.5625 73.2543 20.3935 72.5014 21.1037C71.7486 21.8068 70.8466 22.3537 69.7955 22.7443C68.7514 23.1278 67.5902 23.3196 66.3118 23.3196Z" fill="#222222"/>
<path d="M76.9226 23L79.6499 6.63636H83.5064L80.7791 23H76.9226ZM82.1428 4.29261C81.5249 4.29261 81.0135 4.08665 80.6087 3.67471C80.2038 3.26278 80.0263 2.76918 80.076 2.19389C80.1257 1.61861 80.3849 1.125 80.8537 0.713068C81.3295 0.301136 81.8729 0.0951706 82.4837 0.0951706C83.1016 0.0951706 83.6094 0.301136 84.0071 0.713068C84.4119 1.125 84.5895 1.61861 84.5398 2.19389C84.4972 2.76918 84.2379 3.26278 83.7621 3.67471C83.2933 4.08665 82.7536 4.29261 82.1428 4.29261ZM95.6433 6.63636L95.1426 9.61932H85.7463L86.2363 6.63636H95.6433ZM89.198 2.71591H93.0545L90.4977 18.0781C90.4196 18.5966 90.4338 18.9943 90.5403 19.2713C90.6539 19.5412 90.835 19.7259 91.0836 19.8253C91.3393 19.9247 91.627 19.9744 91.9466 19.9744C92.1809 19.9744 92.4011 19.9567 92.6071 19.9212C92.813 19.8786 92.9764 19.8466 93.0971 19.8253L93.2676 22.8402C93.0332 22.9112 92.7172 22.9893 92.3194 23.0746C91.9288 23.1598 91.4601 23.2095 90.9132 23.2237C89.9331 23.245 89.0808 23.0959 88.3564 22.7763C87.639 22.4496 87.1135 21.9489 86.7797 21.2741C86.4529 20.5923 86.3784 19.7401 86.5559 18.7173L89.198 2.71591Z" fill="#E9B949"/>
</g>
<defs>
<filter id="filter0_d_1_2" x="0.862915" y="0.0951843" width="98.7804" height="31.2244" filterUnits="userSpaceOnUse" color-interpolation-filters="sRGB">
<feFlood flood-opacity="0" result="BackgroundImageFix"/>
<feColorMatrix in="SourceAlpha" type="matrix" values="0 0 0 0 0 0 0 0 0 0 0 0 0 0 0 0 0 0 127 0" result="hardAlpha"/>
<feOffset dy="4"/>
<feGaussianBlur stdDeviation="2"/>
<feComposite in2="hardAlpha" operator="out"/>
<feColorMatrix type="matrix" values="0 0 0 0 0 0 0 0 0 0 0 0 0 0 0 0 0 0 0.25 0"/>
<feBlend mode="normal" in2="BackgroundImageFix" result="effect1_dropShadow_1_2"/>
<feBlend mode="normal" in="SourceGraphic" in2="effect1_dropShadow_1_2" result="shape"/>
</filter>
</defs>
</svg>
