<svg width="224" height="37" viewBox="0 0 224 37" fill="none" xmlns="http://www.w3.org/2000/svg">
<g filter="url(#filter0_d_4_8)">
<path d="M11.1545 22.3196C9.52095 22.3196 8.17862 21.9609 7.12749 21.2436C6.07635 20.5263 5.34126 19.5355 4.92223 18.2713C4.5103 17 4.44283 15.5369 4.71982 13.8821C4.9897 12.2202 5.54723 10.7536 6.3924 9.48224C7.24467 8.20383 8.31712 7.20952 9.60973 6.49929C10.9023 5.78196 12.3477 5.4233 13.9457 5.4233C15.2738 5.4233 16.4066 5.66832 17.3441 6.15838C18.2887 6.64134 18.9918 7.3267 19.4535 8.21449C19.9222 9.09517 20.1033 10.125 19.9968 11.304H16.3001C16.2859 10.5156 16.0408 9.85866 15.565 9.3331C15.0891 8.80043 14.3931 8.53409 13.4769 8.53409C12.6815 8.53409 11.9499 8.74716 11.2823 9.17329C10.6147 9.59233 10.0501 10.196 9.58842 10.9844C9.12678 11.7727 8.80717 12.7173 8.62962 13.8182C8.44496 14.9332 8.44851 15.892 8.64027 16.6946C8.83913 17.4901 9.1978 18.1044 9.71626 18.5376C10.2418 18.9638 10.9059 19.1768 11.7085 19.1768C12.2766 19.1768 12.8058 19.0703 13.2958 18.8572C13.7859 18.6371 14.2156 18.321 14.5849 17.9091C14.9613 17.4972 15.256 16.9964 15.4691 16.407H19.1552C18.864 17.5646 18.3455 18.5909 17.5998 19.4858C16.8612 20.3736 15.945 21.0696 14.8512 21.5739C13.7575 22.071 12.5252 22.3196 11.1545 22.3196ZM28.5542 22.3196C26.9419 22.3196 25.5996 21.9645 24.5272 21.2543C23.4618 20.544 22.7125 19.5462 22.2793 18.2607C21.8461 16.9751 21.7679 15.4837 22.0449 13.7862C22.3219 12.1101 22.8759 10.6435 23.7069 9.38636C24.5449 8.12926 25.5996 7.15625 26.8709 6.46733C28.1493 5.77131 29.5804 5.4233 31.1642 5.4233C32.7765 5.4233 34.1152 5.78196 35.1806 6.49929C36.2459 7.20952 36.9952 8.20739 37.4284 9.4929C37.8688 10.7784 37.9505 12.277 37.6735 13.9886C37.4036 15.6577 36.8461 17.1172 36.0009 18.3672C35.1628 19.6172 34.1081 20.5902 32.8368 21.2862C31.5655 21.9751 30.138 22.3196 28.5542 22.3196ZM28.8738 19.2301C29.7686 19.2301 30.5534 18.9886 31.2282 18.5057C31.91 18.0156 32.4675 17.3587 32.9007 16.5348C33.3411 15.7038 33.6465 14.7805 33.8169 13.7649C33.9732 12.7848 33.9767 11.897 33.8276 11.1016C33.6784 10.299 33.3588 9.66335 32.8688 9.1946C32.3858 8.71875 31.7147 8.48082 30.8553 8.48082C29.9604 8.48082 29.1685 8.7294 28.4796 9.22656C27.7978 9.71662 27.2402 10.3771 26.807 11.2081C26.3738 12.032 26.0755 12.9517 25.9121 13.9673C25.7488 14.9474 25.7417 15.8352 25.8908 16.6307C26.04 17.4261 26.3596 18.0582 26.8496 18.527C27.3397 18.9957 28.0144 19.2301 28.8738 19.2301ZM45.6768 22.2876C44.3913 22.2876 43.294 21.9574 42.3849 21.2969C41.4759 20.6364 40.8295 19.6776 40.446 18.4205C40.0696 17.1634 40.027 15.6364 40.3182 13.8395C40.6236 12.0213 41.1811 10.4872 41.9908 9.23722C42.8004 7.98011 43.7663 7.03196 44.8885 6.39276C46.0178 5.74645 47.2109 5.4233 48.468 5.4233C49.4339 5.4233 50.1974 5.58665 50.7585 5.91335C51.3267 6.23295 51.7528 6.62003 52.0369 7.07457C52.321 7.52202 52.5305 7.9446 52.6655 8.34233H52.8253L54.1783 0.181818H58.0455L54.4233 22H50.6307L51.0675 19.4219H50.8331C50.5632 19.8196 50.2045 20.2422 49.7571 20.6896C49.3097 21.13 48.7521 21.5064 48.0845 21.8189C47.4169 22.1314 46.6143 22.2876 45.6768 22.2876ZM47.2109 19.1236C48.0348 19.1236 48.7734 18.9034 49.4268 18.4631C50.0874 18.0156 50.6378 17.3942 51.0781 16.5987C51.5185 15.8033 51.8274 14.8764 52.005 13.8182C52.1825 12.7599 52.1825 11.8402 52.005 11.0589C51.8274 10.2777 51.483 9.67045 50.9716 9.23722C50.4602 8.80398 49.7891 8.58736 48.9581 8.58736C48.1058 8.58736 47.3565 8.81108 46.7102 9.25852C46.071 9.70597 45.5455 10.3239 45.1335 11.1122C44.7216 11.9006 44.4304 12.8026 44.2599 13.8182C44.0895 14.8409 44.0788 15.7536 44.228 16.5561C44.3842 17.3516 44.7074 17.9801 45.1974 18.4418C45.6946 18.8963 46.3658 19.1236 47.2109 19.1236ZM65.7532 22.3196C64.1126 22.3196 62.756 21.9787 61.6836 21.2969C60.6112 20.608 59.8583 19.6349 59.4251 18.3778C58.9989 17.1136 58.9279 15.6257 59.212 13.9141C59.489 12.2308 60.0536 10.7536 60.9059 9.48224C61.7582 8.20383 62.8235 7.20952 64.1019 6.49929C65.3874 5.78196 66.8079 5.4233 68.3633 5.4233C69.3718 5.4233 70.2987 5.58665 71.1438 5.91335C71.989 6.23295 72.7028 6.73011 73.2852 7.40483C73.8675 8.07955 74.2688 8.93892 74.489 9.98295C74.7092 11.0199 74.6985 12.2557 74.457 13.6903L74.2759 14.8729H60.8526L61.2681 12.2734H70.984C71.1119 11.5348 71.0692 10.8778 70.8562 10.3026C70.6431 9.72017 70.288 9.26207 69.7908 8.92827C69.2937 8.59446 68.6722 8.42756 67.9265 8.42756C67.1665 8.42756 66.4563 8.62287 65.7958 9.01349C65.1424 9.39702 64.592 9.89418 64.1445 10.505C63.6971 11.1158 63.413 11.7585 63.2923 12.4332L62.8555 14.9261C62.6992 15.9489 62.7347 16.7834 62.962 17.4297C63.1893 18.076 63.587 18.5518 64.1552 18.8572C64.7234 19.1626 65.4407 19.3153 66.3072 19.3153C66.8754 19.3153 67.4009 19.2372 67.8839 19.081C68.3668 18.9247 68.7965 18.6903 69.1729 18.3778C69.5565 18.0582 69.8761 17.6676 70.1317 17.206L73.658 17.6108C73.2674 18.5625 72.6957 19.3935 71.9428 20.1037C71.19 20.8068 70.288 21.3537 69.2369 21.7443C68.1928 22.1278 67.0316 22.3196 65.7532 22.3196Z" fill="#222222"/>
<path d="M76.5344 22L80.1566 0.181818H84.109L82.5749 9.41832H92.685L94.2191 0.181818H98.1822L94.56 22H90.5969L92.131 12.7315H82.021L80.4869 22H76.5344ZM105.89 22.3196C104.249 22.3196 102.893 21.9787 101.82 21.2969C100.748 20.608 99.995 19.6349 99.5618 18.3778C99.1357 17.1136 99.0646 15.6257 99.3487 13.9141C99.6257 12.2308 100.19 10.7536 101.043 9.48224C101.895 8.20383 102.96 7.20952 104.239 6.49929C105.524 5.78196 106.945 5.4233 108.5 5.4233C109.509 5.4233 110.435 5.58665 111.281 5.91335C112.126 6.23295 112.839 6.73011 113.422 7.40483C114.004 8.07955 114.406 8.93892 114.626 9.98295C114.846 11.0199 114.835 12.2557 114.594 13.6903L114.413 14.8729H100.989L101.405 12.2734H111.121C111.249 11.5348 111.206 10.8778 110.993 10.3026C110.78 9.72017 110.425 9.26207 109.928 8.92827C109.43 8.59446 108.809 8.42756 108.063 8.42756C107.303 8.42756 106.593 8.62287 105.933 9.01349C105.279 9.39702 104.729 9.89418 104.281 10.505C103.834 11.1158 103.55 11.7585 103.429 12.4332L102.992 14.9261C102.836 15.9489 102.871 16.7834 103.099 17.4297C103.326 18.076 103.724 18.5518 104.292 18.8572C104.86 19.1626 105.577 19.3153 106.444 19.3153C107.012 19.3153 107.538 19.2372 108.021 19.081C108.504 18.9247 108.933 18.6903 109.31 18.3778C109.693 18.0582 110.013 17.6676 110.268 17.206L113.795 17.6108C113.404 18.5625 112.832 19.3935 112.08 20.1037C111.327 20.8068 110.425 21.3537 109.374 21.7443C108.33 22.1278 107.168 22.3196 105.89 22.3196ZM121.167 22.3303C120.13 22.3303 119.228 22.1456 118.461 21.7763C117.694 21.3999 117.129 20.8459 116.767 20.1143C116.412 19.3828 116.323 18.4808 116.501 17.4084C116.657 16.4851 116.955 15.7216 117.396 15.1179C117.843 14.5142 118.39 14.0312 119.036 13.669C119.69 13.2997 120.4 13.0227 121.167 12.8381C121.941 12.6534 122.729 12.5185 123.532 12.4332C124.512 12.3338 125.304 12.2415 125.908 12.1562C126.518 12.071 126.977 11.9432 127.282 11.7727C127.587 11.5952 127.772 11.3253 127.836 10.9631V10.8991C127.964 10.0966 127.836 9.47514 127.452 9.0348C127.069 8.59446 126.43 8.37429 125.535 8.37429C124.597 8.37429 123.809 8.58026 123.17 8.99219C122.531 9.40412 122.065 9.89062 121.774 10.4517L118.28 9.94034C118.72 8.94602 119.324 8.11506 120.091 7.44744C120.858 6.77273 121.742 6.26847 122.744 5.93466C123.752 5.59375 124.828 5.4233 125.972 5.4233C126.753 5.4233 127.516 5.51563 128.262 5.70028C129.015 5.88494 129.679 6.19034 130.254 6.61648C130.837 7.03551 131.263 7.60724 131.533 8.33168C131.81 9.05611 131.856 9.96165 131.671 11.0483L129.849 22H126.142L126.526 19.7521H126.398C126.092 20.2067 125.695 20.6328 125.205 21.0305C124.714 21.4212 124.132 21.7372 123.457 21.9787C122.783 22.2131 122.019 22.3303 121.167 22.3303ZM122.626 19.4964C123.401 19.4964 124.097 19.3437 124.714 19.0384C125.332 18.7259 125.84 18.3139 126.238 17.8026C126.636 17.2912 126.884 16.7337 126.984 16.13L127.303 14.2017C127.161 14.3011 126.941 14.3935 126.643 14.4787C126.344 14.5639 126.011 14.6385 125.641 14.7024C125.279 14.7663 124.92 14.8232 124.565 14.8729C124.21 14.9226 123.905 14.9652 123.649 15.0007C123.06 15.0788 122.52 15.2067 122.03 15.3842C121.547 15.5618 121.146 15.8104 120.826 16.13C120.513 16.4425 120.318 16.8473 120.24 17.3445C120.126 18.0476 120.293 18.5838 120.741 18.9531C121.188 19.3153 121.817 19.4964 122.626 19.4964ZM133.727 22L136.455 5.63636H140.194L139.736 8.36364H139.906C140.354 7.41903 140.986 6.69105 141.803 6.17969C142.626 5.66122 143.507 5.40199 144.445 5.40199C144.665 5.40199 144.903 5.41264 145.158 5.43395C145.414 5.44815 145.634 5.47301 145.819 5.50852L145.222 9.05611C145.059 8.99929 144.803 8.94957 144.455 8.90696C144.114 8.85724 143.777 8.83239 143.443 8.83239C142.74 8.83239 142.087 8.98508 141.483 9.29048C140.886 9.58878 140.382 10.0043 139.97 10.5369C139.558 11.0696 139.292 11.6839 139.171 12.38L137.584 22H133.727ZM157.428 5.63636L156.928 8.61932H147.531L148.021 5.63636H157.428ZM150.983 1.71591H154.84L152.283 17.0781C152.205 17.5966 152.219 17.9943 152.325 18.2713C152.439 18.5412 152.62 18.7259 152.869 18.8253C153.124 18.9247 153.412 18.9744 153.732 18.9744C153.966 18.9744 154.186 18.9567 154.392 18.9212C154.598 18.8786 154.762 18.8466 154.882 18.8253L155.053 21.8402C154.818 21.9112 154.502 21.9893 154.105 22.0746C153.714 22.1598 153.245 22.2095 152.698 22.2237C151.718 22.245 150.866 22.0959 150.142 21.7763C149.424 21.4496 148.899 20.9489 148.565 20.2741C148.238 19.5923 148.164 18.7401 148.341 17.7173L150.983 1.71591ZM164.952 22.3196C163.312 22.3196 161.955 21.9787 160.883 21.2969C159.81 20.608 159.058 19.6349 158.624 18.3778C158.198 17.1136 158.127 15.6257 158.411 13.9141C158.688 12.2308 159.253 10.7536 160.105 9.48224C160.957 8.20383 162.023 7.20952 163.301 6.49929C164.587 5.78196 166.007 5.4233 167.562 5.4233C168.571 5.4233 169.498 5.58665 170.343 5.91335C171.188 6.23295 171.902 6.73011 172.484 7.40483C173.067 8.07955 173.468 8.93892 173.688 9.98295C173.908 11.0199 173.898 12.2557 173.656 13.6903L173.475 14.8729H160.052L160.467 12.2734H170.183C170.311 11.5348 170.268 10.8778 170.055 10.3026C169.842 9.72017 169.487 9.26207 168.99 8.92827C168.493 8.59446 167.871 8.42756 167.126 8.42756C166.366 8.42756 165.656 8.62287 164.995 9.01349C164.342 9.39702 163.791 9.89418 163.344 10.505C162.896 11.1158 162.612 11.7585 162.491 12.4332L162.055 14.9261C161.898 15.9489 161.934 16.7834 162.161 17.4297C162.388 18.076 162.786 18.5518 163.354 18.8572C163.923 19.1626 164.64 19.3153 165.506 19.3153C166.075 19.3153 166.6 19.2372 167.083 19.081C167.566 18.9247 167.996 18.6903 168.372 18.3778C168.756 18.0582 169.075 17.6676 169.331 17.206L172.857 17.6108C172.467 18.5625 171.895 19.3935 171.142 20.1037C170.389 20.8068 169.487 21.3537 168.436 21.7443C167.392 22.1278 166.231 22.3196 164.952 22.3196ZM181.614 22.2876C180.329 22.2876 179.232 21.9574 178.322 21.2969C177.413 20.6364 176.767 19.6776 176.384 18.4205C176.007 17.1634 175.964 15.6364 176.256 13.8395C176.561 12.0213 177.119 10.4872 177.928 9.23722C178.738 7.98011 179.704 7.03196 180.826 6.39276C181.955 5.74645 183.148 5.4233 184.406 5.4233C185.371 5.4233 186.135 5.58665 186.696 5.91335C187.264 6.23295 187.69 6.62003 187.974 7.07457C188.259 7.52202 188.468 7.9446 188.603 8.34233H188.763L190.116 0.181818H193.983L190.361 22H186.568L187.005 19.4219H186.771C186.501 19.8196 186.142 20.2422 185.695 20.6896C185.247 21.13 184.69 21.5064 184.022 21.8189C183.354 22.1314 182.552 22.2876 181.614 22.2876ZM183.148 19.1236C183.972 19.1236 184.711 18.9034 185.364 18.4631C186.025 18.0156 186.575 17.3942 187.016 16.5987C187.456 15.8033 187.765 14.8764 187.942 13.8182C188.12 12.7599 188.12 11.8402 187.942 11.0589C187.765 10.2777 187.42 9.67045 186.909 9.23722C186.398 8.80398 185.727 8.58736 184.896 8.58736C184.043 8.58736 183.294 8.81108 182.648 9.25852C182.009 9.70597 181.483 10.3239 181.071 11.1122C180.659 11.9006 180.368 12.8026 180.197 13.8182C180.027 14.8409 180.016 15.7536 180.165 16.5561C180.322 17.3516 180.645 17.9801 181.135 18.4418C181.632 18.8963 182.303 19.1236 183.148 19.1236ZM201.968 0.181818L198.346 22H194.489L198.111 0.181818H201.968ZM203.707 28.1364C203.181 28.1364 202.702 28.0938 202.269 28.0085C201.843 27.9304 201.505 27.8381 201.257 27.7315L202.663 24.7273C203.195 24.8906 203.675 24.9616 204.101 24.9403C204.534 24.9261 204.932 24.7805 205.294 24.5036C205.664 24.2337 206.026 23.7898 206.381 23.1719L206.871 22.2876L203.739 5.63636H207.681L209.385 18.0156H209.556L215.404 5.63636H219.655L210.078 23.9602C209.616 24.848 209.08 25.6009 208.469 26.2188C207.858 26.8438 207.159 27.3196 206.37 27.6463C205.589 27.973 204.701 28.1364 203.707 28.1364Z" fill="#E9B949"/>
</g>
<defs>
<filter id="filter0_d_4_8" x="0.304321" y="0.181824" width="223.351" height="35.9545" filterUnits="userSpaceOnUse" color-interpolation-filters="sRGB">
<feFlood flood-opacity="0" result="BackgroundImageFix"/>
<feColorMatrix in="SourceAlpha" type="matrix" values="0 0 0 0 0 0 0 0 0 0 0 0 0 0 0 0 0 0 127 0" result="hardAlpha"/>
<feOffset dy="4"/>
<feGaussianBlur stdDeviation="2"/>
<feComposite in2="hardAlpha" operator="out"/>
<feColorMatrix type="matrix" values="0 0 0 0 0 0 0 0 0 0 0 0 0 0 0 0 0 0 0.25 0"/>
<feBlend mode="normal" in2="BackgroundImageFix" result="effect1_dropShadow_4_8"/>
<feBlend mode="normal" in="SourceGraphic" in2="effect1_dropShadow_4_8" result="shape"/>
</filter>
</defs>
</svg>
