<svg width="134" height="37" viewBox="0 0 134 37" fill="none" xmlns="http://www.w3.org/2000/svg">
<g filter="url(#filter0_d_1_2)">
<path d="M4.59339 22V0.181818H12.7752C14.4513 0.181818 15.8576 0.473011 16.994 1.0554C18.1374 1.63778 19.0004 2.45454 19.5827 3.50568C20.1722 4.54972 20.467 5.76776 20.467 7.1598C20.467 8.55895 20.1687 9.77344 19.5721 10.8033C18.9826 11.826 18.1126 12.6179 16.962 13.179C15.8114 13.733 14.3981 14.0099 12.7219 14.0099H6.89453V10.7287H12.1893C13.1694 10.7287 13.9719 10.5937 14.5969 10.3239C15.2219 10.0469 15.6836 9.6456 15.9819 9.12003C16.2873 8.58736 16.44 7.93395 16.44 7.1598C16.44 6.38565 16.2873 5.72514 15.9819 5.17827C15.6765 4.62429 15.2113 4.20526 14.5863 3.92116C13.9613 3.62997 13.1552 3.48438 12.168 3.48438H8.54581V22H4.59339ZM15.8647 12.1136L21.266 22H16.8555L11.5501 12.1136H15.8647ZM30.8381 22.3196C29.2401 22.3196 27.8551 21.968 26.6832 21.2649C25.5114 20.5618 24.6023 19.5781 23.956 18.3139C23.3168 17.0497 22.9972 15.5724 22.9972 13.8821C22.9972 12.1918 23.3168 10.7109 23.956 9.43963C24.6023 8.16832 25.5114 7.18111 26.6832 6.47798C27.8551 5.77486 29.2401 5.4233 30.8381 5.4233C32.4361 5.4233 33.821 5.77486 34.9929 6.47798C36.1648 7.18111 37.0703 8.16832 37.7095 9.43963C38.3558 10.7109 38.679 12.1918 38.679 13.8821C38.679 15.5724 38.3558 17.0497 37.7095 18.3139C37.0703 19.5781 36.1648 20.5618 34.9929 21.2649C33.821 21.968 32.4361 22.3196 30.8381 22.3196ZM30.8594 19.2301C31.7259 19.2301 32.4503 18.9922 33.0327 18.5163C33.6151 18.0334 34.0483 17.3871 34.3324 16.5774C34.6236 15.7678 34.7692 14.8658 34.7692 13.8714C34.7692 12.87 34.6236 11.9645 34.3324 11.1548C34.0483 10.3381 33.6151 9.68821 33.0327 9.20526C32.4503 8.7223 31.7259 8.48082 30.8594 8.48082C29.9716 8.48082 29.233 8.7223 28.6435 9.20526C28.0611 9.68821 27.6243 10.3381 27.3331 11.1548C27.049 11.9645 26.907 12.87 26.907 13.8714C26.907 14.8658 27.049 15.7678 27.3331 16.5774C27.6243 17.3871 28.0611 18.0334 28.6435 18.5163C29.233 18.9922 29.9716 19.2301 30.8594 19.2301ZM52.872 28.1364V19.4219H52.7122C52.5133 19.8196 52.2257 20.2422 51.8493 20.6896C51.4728 21.13 50.9757 21.5064 50.3578 21.8189C49.7399 22.1314 48.9622 22.2876 48.0247 22.2876C46.7392 22.2876 45.5886 21.9574 44.573 21.2969C43.5574 20.6364 42.7548 19.6776 42.1653 18.4205C41.5758 17.1634 41.2811 15.6364 41.2811 13.8395C41.2811 12.0213 41.5794 10.4872 42.176 9.23722C42.7797 7.98011 43.5929 7.03196 44.6156 6.39276C45.6383 5.74645 46.7782 5.4233 48.0353 5.4233C48.9941 5.4233 49.7825 5.58665 50.4004 5.91335C51.0183 6.23295 51.5083 6.62003 51.8706 7.07457C52.2328 7.52202 52.5133 7.9446 52.7122 8.34233H52.9466V5.63636H56.7392V28.1364H52.872ZM49.1007 19.1236C49.9174 19.1236 50.6135 18.9034 51.1887 18.4631C51.764 18.0156 52.2008 17.3942 52.4991 16.5987C52.7974 15.8033 52.9466 14.8764 52.9466 13.8182C52.9466 12.7599 52.7974 11.8402 52.4991 11.0589C52.2079 10.2777 51.7747 9.67045 51.1994 9.23722C50.6312 8.80398 49.9316 8.58736 49.1007 8.58736C48.2413 8.58736 47.524 8.81108 46.9487 9.25852C46.3734 9.70597 45.9402 10.3239 45.649 11.1122C45.3578 11.9006 45.2122 12.8026 45.2122 13.8182C45.2122 14.8409 45.3578 15.7536 45.649 16.5561C45.9473 17.3516 46.3841 17.9801 46.9593 18.4418C47.5417 18.8963 48.2555 19.1236 49.1007 19.1236Z" fill="#222222"/>
<path d="M59.9139 3.49503V0.181818H77.3216V3.49503H70.5779V22H66.6575V3.49503H59.9139ZM88.7101 15.1179V5.63636H92.5666V22H88.8272V19.0916H88.6568C88.2875 20.0078 87.6802 20.7571 86.8351 21.3395C85.997 21.9219 84.9636 22.2131 83.7349 22.2131C82.6625 22.2131 81.7143 21.9751 80.8904 21.4993C80.0737 21.0163 79.4345 20.3168 78.9728 19.4006C78.5112 18.4773 78.2804 17.3622 78.2804 16.0554V5.63636H82.1369V15.4588C82.1369 16.4957 82.421 17.3196 82.9892 17.9304C83.5574 18.5412 84.3031 18.8466 85.2264 18.8466C85.7946 18.8466 86.345 18.7081 86.8777 18.4311C87.4103 18.1541 87.8471 17.7422 88.188 17.1953C88.536 16.6413 88.7101 15.9489 88.7101 15.1179ZM100.389 12.4119V22H96.5323V5.63636H100.218V8.4169H100.41C100.787 7.50071 101.387 6.77273 102.211 6.23295C103.042 5.69318 104.068 5.4233 105.289 5.4233C106.419 5.4233 107.402 5.66477 108.24 6.14773C109.086 6.63068 109.739 7.33026 110.201 8.24645C110.669 9.16264 110.9 10.2741 110.893 11.581V22H107.037V12.1776C107.037 11.0838 106.752 10.228 106.184 9.61008C105.623 8.99219 104.846 8.68324 103.851 8.68324C103.176 8.68324 102.576 8.83239 102.051 9.13068C101.532 9.42187 101.124 9.84446 100.826 10.3984C100.534 10.9524 100.389 11.6236 100.389 12.4119ZM120.886 22.2876C119.6 22.2876 118.45 21.9574 117.434 21.2969C116.419 20.6364 115.616 19.6776 115.027 18.4205C114.437 17.1634 114.142 15.6364 114.142 13.8395C114.142 12.0213 114.441 10.4872 115.037 9.23722C115.641 7.98011 116.454 7.03196 117.477 6.39276C118.5 5.74645 119.64 5.4233 120.897 5.4233C121.855 5.4233 122.644 5.58665 123.262 5.91335C123.88 6.23295 124.37 6.62003 124.732 7.07457C125.094 7.52202 125.375 7.9446 125.574 8.34233H125.733V0.181818H129.6V22H125.808V19.4219H125.574C125.375 19.8196 125.087 20.2422 124.711 20.6896C124.334 21.13 123.837 21.5064 123.219 21.8189C122.601 22.1314 121.824 22.2876 120.886 22.2876ZM121.962 19.1236C122.779 19.1236 123.475 18.9034 124.05 18.4631C124.625 18.0156 125.062 17.3942 125.36 16.5987C125.659 15.8033 125.808 14.8764 125.808 13.8182C125.808 12.7599 125.659 11.8402 125.36 11.0589C125.069 10.2777 124.636 9.67045 124.061 9.23722C123.493 8.80398 122.793 8.58736 121.962 8.58736C121.103 8.58736 120.385 8.81108 119.81 9.25852C119.235 9.70597 118.801 10.3239 118.51 11.1122C118.219 11.9006 118.074 12.8026 118.074 13.8182C118.074 14.8409 118.219 15.7536 118.51 16.5561C118.809 17.3516 119.245 17.9801 119.821 18.4418C120.403 18.8963 121.117 19.1236 121.962 19.1236Z" fill="#E9B949"/>
</g>
<defs>
<filter id="filter0_d_1_2" x="0.593384" y="0.181824" width="133.007" height="35.9545" filterUnits="userSpaceOnUse" color-interpolation-filters="sRGB">
<feFlood flood-opacity="0" result="BackgroundImageFix"/>
<feColorMatrix in="SourceAlpha" type="matrix" values="0 0 0 0 0 0 0 0 0 0 0 0 0 0 0 0 0 0 127 0" result="hardAlpha"/>
<feOffset dy="4"/>
<feGaussianBlur stdDeviation="2"/>
<feComposite in2="hardAlpha" operator="out"/>
<feColorMatrix type="matrix" values="0 0 0 0 0 0 0 0 0 0 0 0 0 0 0 0 0 0 0.25 0"/>
<feBlend mode="normal" in2="BackgroundImageFix" result="effect1_dropShadow_1_2"/>
<feBlend mode="normal" in="SourceGraphic" in2="effect1_dropShadow_1_2" result="shape"/>
</filter>
</defs>
</svg>
